<svg xmlns="http://www.w3.org/2000/svg" width="1200" height="630" viewBox="0 0 1200 630"><defs><linearGradient id="g" x2="1" y2="1"><stop stop-color="#e9e6d9"/><stop offset="1" stop-color="#c4d6c6"/></linearGradient></defs><rect width="1200" height="630" fill="url(#g)"/><circle cx="975" cy="154" r="170" fill="#8ca998" opacity=".35"/><path d="M0 460 Q180 405 340 460 T690 460 T1200 460 V630 H0" fill="#637c6b" opacity=".24"/><path d="M0 530 Q180 475 340 530 T690 530 T1200 530 V630 H0" fill="#3d655a" opacity=".34"/><g font-family="serif" fill="#24372c"><text x="95" y="105" font-size="29" letter-spacing="5">웃기는 이야기 · 제1편</text><text x="85" y="285" font-size="105" font-weight="bold">환경의 역설</text><text x="93" y="364" font-size="32">우리는 무엇을 물려받았고,</text><text x="93" y="412" font-size="32">무엇을 남길 것인가</text></g><g transform="translate(900 315)" stroke="#2d654d" fill="none" stroke-width="11" stroke-linecap="round"><path d="M0 150 Q5 20 45 -40"/><path d="M18 65 Q-65 70 -80 -12 Q-10 -30 18 65Z" fill="#77a081"/><path d="M25 32 Q90 -25 118 -92 Q20 -115 25 32Z" fill="#91b498"/></g><text x="95" y="568" fill="#506458" font-size="21" font-family="sans-serif" letter-spacing="3">WEB ESSAY · 2026.10.09</text></svg>